<svg width="116" height="116" fill="none" xmlns="http://www.w3.org/2000/svg"><path d="M57.945 115.891c32.003 0 57.946-25.943 57.946-57.946C115.891 25.943 89.948 0 57.945 0 25.943 0 0 25.943 0 57.945c0 32.003 25.943 57.946 57.945 57.946Z" fill="#0046C8"/><path d="m96.66 47.122-4.252 11.774-3.465-11.774h-5.181l-3.465 11.774-4.252-11.774h-6.873l7.87 21.867h5.657l3.654-11.902 3.654 11.901h5.656l7.87-21.866H96.66ZM13.813 47.122h10.716c6 0 7.123 3.745 7.123 5.933 0 2.902-1.967 4.435-3.464 4.875 1.282.312 3.623 1.686 3.623 4.967 0 2.248-1.094 6.092-7.093 6.092H13.813V47.121Zm8.682 8.59c1.967 0 2.657-1.124 2.657-2.218 0-.904-.44-2.187-2.657-2.187h-2.157v4.405h2.157Zm-2.157 4.252v4.466h2.218c1.968 0 2.657-1.155 2.657-2.248 0-.905-.5-2.218-2.657-2.218h-2.218ZM34.959 47.122h6.562v21.867h-6.562V47.121ZM67.052 56.867H56.73v4.277h3.623c-.312 1.687-1.625 3.092-4.155 3.092-3.562 0-5.31-2.75-5.31-6 0-3.183 1.656-6.152 4.998-6.152 2.249 0 3.465 1.374 3.685 2.621h7.185c-.404-4.497-4.656-8.181-10.778-8.181-7.435 0-11.712 5.401-11.712 11.651 0 6.153 4.124 11.401 11.774 11.401 6.066 0 10.041-3.265 10.854-8.15.158-.951.22-1.937.22-2.95a16.883 16.883 0 0 0-.062-1.609Z" fill="#fff"/></svg>