<?xml version="1.0" encoding="utf-8"?>
<!-- Generator: Adobe Illustrator 28.0.0, SVG Export Plug-In . SVG Version: 6.00 Build 0)  -->
<svg version="1.1" id="artwork" xmlns="http://www.w3.org/2000/svg" xmlns:xlink="http://www.w3.org/1999/xlink" x="0px" y="0px"
	 viewBox="0 0 874.78833 179.0063" style="enable-background:new 0 0 874.78833 179.0063;" xml:space="preserve">
<style type="text/css">
	.st0{fill:#FFFFFF;filter:url(#Adobe_OpacityMaskFilter);}
	.st1{mask:url(#mask0_667_11099_00000093875567754898376990000008063817869145372590_);}
	.st2{fill:#FFFFFF;filter:url(#Adobe_OpacityMaskFilter_00000115488252360698252590000018143206353063965057_);}
	.st3{mask:url(#mask1_667_11099_00000021821442824804646560000000917732605390106531_);}
	.st4{fill:#1971ED;}
</style>
<g>
	<defs>
		
			<filter id="Adobe_OpacityMaskFilter" filterUnits="userSpaceOnUse" x="437.15457" y="26.86112" width="437.63376" height="139.66736">
			<feColorMatrix  type="matrix" values="1 0 0 0 0  0 1 0 0 0  0 0 1 0 0  0 0 0 1 0"/>
		</filter>
	</defs>
	
		<mask maskUnits="userSpaceOnUse" x="437.15457" y="26.86112" width="437.63376" height="139.66736" id="mask0_667_11099_00000093875567754898376990000008063817869145372590_">
		<path class="st0" d="M874.78461,1.72138H427.66602v177.61678h447.11859V1.72138z"/>
	</mask>
	<g class="st1">
		<defs>
			
				<filter id="Adobe_OpacityMaskFilter_00000124863136432207393450000015619132960731068841_" filterUnits="userSpaceOnUse" x="437.15457" y="26.86112" width="437.63376" height="139.66736">
				<feColorMatrix  type="matrix" values="1 0 0 0 0  0 1 0 0 0  0 0 1 0 0  0 0 0 1 0"/>
			</filter>
		</defs>
		
			<mask maskUnits="userSpaceOnUse" x="437.15457" y="26.86112" width="437.63376" height="139.66736" id="mask1_667_11099_00000021821442824804646560000000917732605390106531_">
			<path style="fill:#FFFFFF;filter:url(#Adobe_OpacityMaskFilter_00000124863136432207393450000015619132960731068841_);" d="
				M874.78461,1.72138H425.90787v177.61678h448.87674V1.72138z"/>
		</mask>
		<g class="st3">
			<path class="st4" d="M437.15457,26.86112h10.48303l10.82825,44.8661h0.35651l10.82639-44.8661h12.02722l10.83392,44.8661h0.35083
				l10.68759-44.8661h10.19589l-14.69907,56.82204h-12.30685L475.69989,37.759h-0.35651l-11.17728,45.92416h-12.30679
				L437.15457,26.86112z"/>
			<path class="st4" d="M532.23541,40.57629c-12.51697,0-22.29263,8.93337-22.29263,22.22244s9.77567,22.22224,22.29263,22.22224
				s22.29254-8.93318,22.29254-22.22224S544.75238,40.57629,532.23541,40.57629z M532.23541,77.07661
				c-8.23151,0-12.23737-6.3326-12.23737-14.27788c0-7.9453,4.01154-14.27713,12.23737-14.27713s12.23737,6.32602,12.23737,14.27713
				C544.47278,70.74965,540.46124,77.07661,532.23541,77.07661z"/>
			<path class="st4" d="M580.12482,40.57629c-12.51697,0-22.2926,8.93337-22.2926,22.22244s9.77563,22.22224,22.2926,22.22224
				c12.5188,0,22.29449-8.93318,22.29449-22.22224S592.64362,40.57629,580.12482,40.57629z M580.12482,77.07661
				c-8.23145,0-12.23553-6.3326-12.23553-14.27788c0-7.9453,4.0097-14.27713,12.23553-14.27713
				c8.22766,0,12.23737,6.32602,12.23737,14.27713C592.36218,70.74965,588.35248,77.07661,580.12482,77.07661z"/>
			<path class="st4" d="M616.97583,26.86112h-9.91449v56.82767h9.91449V26.86112z"/>
			<path class="st4" d="M619.08478,41.84057h10.47742l8.79242,30.31444h0.35089l8.51288-30.31444h10.26538l8.5072,30.31444h0.35651
				l8.85815-30.31444h10.13214l-13.29559,41.84259h-10.54681l-9.14331-31.71645h-0.35089l-9.00452,31.71645h-10.62372
				L619.08478,41.84057z"/>
			<path class="st4" d="M706.99432,40.57629c-12.51886,0-22.2926,8.93337-22.2926,22.22244s9.77374,22.22224,22.2926,22.22224
				c12.51697,0,22.2926-8.93318,22.2926-22.22224S719.51129,40.57629,706.99432,40.57629z M706.99432,77.07661
				c-8.23334,0-12.23737-6.3326-12.23737-14.27788c0-7.9453,4.0116-14.27713,12.23737-14.27713s12.23553,6.32602,12.23553,14.27713
				C719.22986,70.74965,715.22009,77.07661,706.99432,77.07661z"/>
			<path class="st4" d="M763.81879,73.55663V49.71531h-5.98169c-8.79248,0-13.99554,5.90497-13.99554,17.65132v16.31653h-9.91632
				V41.84h9.91632v13.07854h0.35089c2.18024-10.40665,6.19-13.07854,15.75549-13.07854h3.87085V30.93632h9.63495V41.84h12.09662
				v7.87531h-12.09662v22.08132c0,2.6719,1.33783,4.01158,4.00964,4.01158h8.08698v7.87495h-11.60504
				C767.68219,83.68316,763.81879,79.67345,763.81879,73.55663z"/>
			<path class="st4" d="M816.3446,40.50105c9.56549,0,15.26013,6.82288,15.26013,15.82642v27.35569h-9.91638V59.28005
				c0-7.94547-4.71143-10.90387-10.05524-10.90387c-7.31384,0-11.04401,6.05114-11.04401,13.57576v21.73121h-9.91638V26.86112
				h9.91638v26.02274h0.48969c1.1239-6.68253,7.17511-12.37698,15.26013-12.37698"/>
			<path class="st4" d="M835.68573,70.11358h9.56555c1.12762,4.9216,4.92346,7.45464,11.04401,7.45464
				c5.69464,0,9.21466-1.97015,9.21466-5.55392c0-2.74318-1.69061-4.08101-5.62524-4.71333l-11.88654-1.89998
				c-7.3139-1.19258-11.11346-5.83479-11.11346-11.88593c0-8.01548,7.10382-13.00837,18.21729-13.00837
				c11.1153,0,18.28845,5.2734,18.99017,14.41748h-9.56543c-0.56104-4.43169-3.65881-6.96323-9.42474-6.96323
				c-5.7641,0-8.93323,1.75981-8.93323,4.92273c0,2.67188,1.75995,4.15099,5.83539,4.85254l12.37622,2.0405
				c6.89362,1.12241,10.40796,5.2736,10.40796,11.32381c0,8.65361-7.52405,13.92795-18.84955,13.92795
				s-19.05969-5.48449-20.25305-14.90927"/>
			<path class="st4" d="M485.26724,138.18472c-2.60245,9.49422-9.63492,14.69725-20.1123,14.69725
				c-14.6991,0-26.30417-12.51697-26.30417-29.74725c0-17.2284,11.04404-29.74723,29.32693-29.74723
				c13.99551,0,24.12204,7.94624,26.16345,20.75027h-9.91638c-1.2684-7.38521-6.7529-12.72898-16.24707-12.72898
				c-12.93915,0-19.34116,9.84695-19.34116,21.73159c0,13.00855,7.45465,21.73158,19.76144,21.73158
				c9.00449,0,16.24707-5.69464,16.24707-13.5752v-1.61928h-18.49866v-7.94624h28.4845v29.81853h-9.21277v-13.35942h-0.35089
				V138.18472z"/>
			<path class="st4" d="M511.42322,122.99401c2.18024-11.11346,5.4826-13.78535,13.64465-13.78535h2.11084v8.29523h-3.5144
				c-8.08502,0-12.58633,5.9761-12.58633,17.72187v16.31841h-9.91638v-41.8439h9.91638v13.29375h0.35086H511.42322z"/>
			<path class="st4" d="M549.53693,108.43748c-12.5188,0-22.29254,8.93318-22.29254,22.22319
				c0,13.28812,9.77374,22.2213,22.29254,22.2213c12.51703,0,22.29266-8.93318,22.29266-22.2213
				C571.82959,117.37067,562.05396,108.43748,549.53693,108.43748z M549.53693,144.93764
				c-8.23328,0-12.2373-6.3326-12.2373-14.27696c0-7.94624,4.01154-14.27883,12.2373-14.27883
				c8.22583,0,12.2356,6.33259,12.2356,14.27883C561.77252,138.60504,557.76276,144.93764,549.53693,144.93764z"/>
			<path class="st4" d="M607.41406,131.43747v-21.73158h9.91638v41.84203h-9.91638v-11.11348h-0.48969
				c-1.19342,7.52405-7.73615,12.44754-15.11945,12.44754c-8.51288,0-15.32953-5.76408-15.32953-15.82117v-27.35492h9.91632
				v24.40346c0,6.68159,3.37177,10.83203,10.05524,10.83203c7.24445,0,10.97461-6.04364,10.97461-13.50391"/>
			<path class="st4" d="M649.39868,108.36807c-7.87488,0-13.57709,5.55392-15.47028,11.74577h-0.35089v-10.41359h-9.91638v56.82822
				h9.91638v-25.32098h0.35089c1.9007,6.19188,7.66479,11.67635,15.47028,11.67635c11.46429,0,18.21722-9.70621,18.21722-22.15373
				C667.61591,119.12504,661.56482,108.36807,649.39868,108.36807z M645.52783,145.56807
				c-7.59534,0-11.95593-5.8335-11.95593-12.51697v-4.78273c0-6.61217,4.3606-12.5864,11.95593-12.5864
				c8.22577,0,12.09668,6.82232,12.09668,15.04813C657.62451,138.9559,653.61292,145.56807,645.52783,145.56807z"/>
		</g>
	</g>
	<g>
		<path class="st4" d="M324.72495,0c-49.43109,0-89.50291,40.07184-89.50291,89.50341c0,5.89029,0.57527,11.64546,1.6613,17.21799
			c-6.60954,16.72645-18.5587,31.26692-36.05667,39.49483c-23.09421,10.86346-53.43076,7.19792-67.42831-15.72121
			c-3.67049-5.49893-8.68734-9.96836-14.57215-12.98289c-5.82812-3.04659-13.24696-2.82589-19.64977-4.41515
			c-15.4455-3.26656-21.23217-18.08747-22.34114-32.38752V1.15858H50.20919C41.84097,18.14852,25.35815,26.77035,0,26.77035v30.176
			c20.79367,0,33.21925-5.07107,42.09459-16.48257h1.52144V178.666h33.21925v-71.83846
			c2.3257,9.28357,6.28658,14.60213,8.07837,16.42517c4.02172,4.47063,9.27615,7.65163,15.1018,9.14101
			c3.39588,0.55731,6.68673,1.62874,9.75873,3.17979c5.77116,3.67416,10.45263,8.82909,13.55594,14.92595
			c6.97723,11.39363,25.03736,24.5972,52.98936,24.5972c11.9435,0.23427,23.72058-2.82098,34.04521-8.83157
			c14.48839-8.88025,26.6485-21.43228,34.43765-36.44044C259.55057,159,289.79974,179.0063,324.72495,179.0063
			c49.43106,0,89.50293-40.07181,89.50293-89.50289C414.22787,40.07184,374.15601,0,324.72495,0z M324.72122,147.93866
			c-32.1748,0-58.25644-26.08164-58.25644-58.25649s26.08163-58.25782,58.25644-58.25782
			c32.17487,0,58.25775,26.083,58.25775,58.25782S356.89609,147.93866,324.72122,147.93866z"/>
		<path class="st4" d="M224.40666,26.67617c-7.42108,5.03065-12.72025,12.62705-14.88036,21.3289
			c-2.60522,8.43455-3.79747,17.31049-6.84407,25.61312c-3.66553,9.89189-12.32079,21.59373-24.28648,21.54935
			c-11.96692-0.04438-17.97258-13.24795-25.83258-20.09202c-7.83905-6.97721-18.03424-10.71795-28.52534-10.46644
			c-6.75652,0-16.1614,1.89873-22.07853-2.56081c-8.83144-6.80091-5.34295-19.42993-0.52979-27.46759
			c0.48566-0.83902,5.87287-9.14103,5.87287-9.14103l-0.70647-0.88316c-8.12608,6.09159-14.84338,13.86369-19.69415,22.78648
			c-2.26675,4.44352-3.23302,9.43694-2.7878,14.40569c0.44534,4.96875,2.28402,9.71064,5.30473,13.67949
			c3.08038,3.21058,7.12936,5.32014,11.52503,6.00565c2.02561,0.38838,4.07722,0.62388,6.13783,0.70647
			c7.81525,0.35385,15.49894-0.92717,22.87315,2.12066c10.77469,4.41518,15.63246,14.92599,23.09424,22.96231
			c12.49709,13.46864,38.10776,12.4527,50.82555-3.22291c18.19203-22.61092,7.19667-52.81552,21.32741-76.75011L224.40666,26.67617z
			"/>
		<path class="st4" d="M171.7724,5.74367c-5.79482-0.08507-11.57857,0.5378-17.22173,1.85471l0,0l-1.63365,0.44164
			c-4.90218,1.41308-13.68935,5.96152-12.98288,12.09972c0.14549,1.02691,0.5499,1.99982,1.17624,2.82664
			c0.62509,0.82693,1.45239,1.48027,2.40053,1.89849c2.32903,0.67084,4.78874,0.74679,7.15352,0.22082
			c15.98509-1.7223,12.93849,10.42168,22.34337,10.11258c5.34357,0,8.0807-4.15107,11.87939-7.10975
			c4.34488-3.43843,9.3494-5.94845,14.70407-7.37459c5.13026-1.74191,10.63042-2.0923,15.94067-1.0157l-0.22067,0.79488
			c-1.41296,0-11.92256,0-23.75632,16.11824c-5.34357,7.28681-10.24452,14.44033-20.22519,14.30718
			c-4.55449-0.19604-8.91045-1.92339-12.36394-4.90094c-3.57677-2.78275-6.0932-6.40341-10.64151-7.55152
			c-4.54831-1.14812-10.9066,1.36893-15.45491,1.05983c-2.64343-0.15806-5.1611-1.18227-7.16463-2.91431
			c-2.00352-1.73191-3.38071-4.07536-3.91829-6.66836c-0.30576-2.77116,0.06905-5.57511,1.09239-8.16848
			c1.02335-2.59337,2.66439-4.89786,4.78011-6.71337c14.43898-13.24783,39.1237-11.65808,44.15657-10.24501l-0.26385,0.9273"/>
	</g>
</g>
</svg>
